<svg id="Слой_1" data-name="Слой 1" xmlns="http://www.w3.org/2000/svg" viewBox="0 0 50 50"><defs><style>.cls-1{fill:#814a95}</style></defs><path class="cls-1" d="M25 50a25 25 0 1125-25 25 25 0 01-25 25zm0-44.2A19.2 19.2 0 1044.2 25 19.23 19.23 0 0025 5.8z"/><g id="g4780"><g id="g15"><path id="path17-6" class="cls-1" d="M34.69 30.06c-.71-.57-1.47-1.09-2.22-1.61-1.5-1.05-2.86-1.14-4 .55a1.75 1.75 0 01-2.42.58 10.71 10.71 0 01-5.62-5.48 2.11 2.11 0 01.68-3 2.11 2.11 0 001.21-1.86c-.07-1.21-3-5.26-4.17-5.69a2.19 2.19 0 00-1.45 0c-2.7.96-3.83 3.2-2.7 5.85a30.15 30.15 0 0016.7 16.78 8.3 8.3 0 001.19.34 5.45 5.45 0 004.47-3.4c.57-1.63-.65-2.28-1.62-3.06z"/><path id="path19-1" class="cls-1" d="M25.94 14.09c5.71.88 8.34 3.59 9.07 9.34.06.53-.14 1.33.62 1.35s.6-.77.61-1.31A10.84 10.84 0 0026.1 12.86c-.41.05-1.27-.29-1.32.64 0 .62.68.52 1.16.59z"/><path id="path21-2" class="cls-1" d="M27.05 15.67c-.55-.07-1.27-.33-1.4.44s.68.71 1.2.83c3.52.79 4.75 2.07 5.33 5.57.08.51-.09 1.3.78 1.17.64-.1.41-.78.47-1.18a7.2 7.2 0 00-6.38-6.83z"/><path id="path23" class="cls-1" d="M27.38 18.41c-.37 0-.73.05-.86.44-.21.59.22.73.65.8a2.57 2.57 0 012.36 2.53c0 .39.28.7.66.66s.57-.53.56-1a3.83 3.83 0 00-3.37-3.46z"/></g></g></svg>