<svg id="Слой_1" data-name="Слой 1" xmlns="http://www.w3.org/2000/svg" viewBox="0 0 50 50"><defs><style>.cls-1{fill:#314561}</style></defs><path class="cls-1" d="M25 50a25 25 0 1125-25 25 25 0 01-25 25zm0-44.2A19.2 19.2 0 1044.2 25 19.23 19.23 0 0025 5.8z"/><path class="cls-1" d="M26.43 17.41v-5.84h-3.77a2.21 2.21 0 00-.13.74 1.05 1.05 0 00-.08.34 5.63 5.63 0 01-3.45 4.5 3.16 3.16 0 01-1.64.26v4.71h2.77v10.6A5.6 5.6 0 0024.74 38a12.88 12.88 0 003.42.44 16.25 16.25 0 004.45-.78v-5.55l-2.33.69a3.28 3.28 0 01-3.38-.73 1.84 1.84 0 01-.26-.48 11.63 11.63 0 01-.21-2.12v-7.35h6v-4.71zm0 0"/></svg>