<svg id="Слой_1" data-name="Слой 1" xmlns="http://www.w3.org/2000/svg" viewBox="0 0 49.33 50"><path d="M24.66 50A24.86 24.86 0 010 25 24.86 24.86 0 0124.66 0a24.86 24.86 0 0124.67 25 24.86 24.86 0 01-24.67 25zm0-44.2a19.2 19.2 0 000 38.4 19.2 19.2 0 000-38.4z" fill="#44ac34"/><path d="M31.25 27c-.29-.17-1.76-1-2-1.08s-.48-.17-.69.13-.82 1-1 1.17-.36.21-.66.05a8.41 8.41 0 01-2.38-1.62 8.79 8.79 0 01-1.61-2.2c-.17-.31 0-.47.15-.62s.32-.35.48-.52a2.23 2.23 0 00.32-.5.57.57 0 000-.54c-.07-.16-.63-1.7-.86-2.32s-.48-.54-.66-.54l-.58-.05a1.1 1.1 0 00-.82.35 3.47 3.47 0 00-1.16 2.53 6.05 6.05 0 001.12 3.23 12.51 12.51 0 005 4.84c3 1.35 3.06.94 3.62.91a3.06 3.06 0 002.1-1.39 2.58 2.58 0 00.23-1.45c-.07-.13-.27-.22-.57-.38zm-5.57 7.29a9.74 9.74 0 01-5.45-1.66l-3.8 1.24 1.23-3.73a9.88 9.88 0 118 4.15zm0-22.09a12 12 0 00-11.89 12.08 12.1 12.1 0 001.7 6.22L13.34 37l6.59-2.14a11.65 11.65 0 005.75 1.5 12.06 12.06 0 000-24.11z" fill-rule="evenodd" fill="#44ac34"/></svg>