<svg id="Слой_1" data-name="Слой 1" xmlns="http://www.w3.org/2000/svg" viewBox="0 0 32.48 49.15"><defs><style>.cls-3{fill:#fff;stroke-linecap:round;stroke-linejoin:round;stroke:#282142}</style></defs><path d="M17.21 26.58a1.08 1.08 0 11-1.07-.95 1 1 0 011.07.95z" stroke-linecap="round" stroke-linejoin="round" stroke="#322447" fill="#fff"/><path d="M24.69.5L16.22 24l-1.71 1.25v2.7l-5.17 8.77A6.27 6.27 0 1011.2 38l6.14-9.22 1.09-.09 7.4-25.55zm-17.94 46a4.11 4.11 0 111.49-7.93A4.19 4.19 0 0110 39.89a4.06 4.06 0 01.87 2.51 4.11 4.11 0 01-4.12 4.11z" stroke="#282142" fill="#1e79b6" stroke-linecap="round" stroke-linejoin="round"/><path class="cls-3" d="M25.73 36.16a6.24 6.24 0 00-2.59.56l-5.22-8.87-.48-.49L7.75.5 7 3.13l7.1 25.59 1 .72L21.28 38a6.24 6.24 0 104.45-1.87zm0 10.35a4.11 4.11 0 01-4.1-4.11 4.06 4.06 0 01.87-2.51 4.19 4.19 0 011.74-1.31 4.11 4.11 0 111.49 7.93z"/><path class="cls-3" d="M16.91 27.92a.78.78 0 11-.77-.77.78.78 0 01.77.77z"/></svg>