<svg id="Слой_1" data-name="Слой 1" xmlns="http://www.w3.org/2000/svg" viewBox="0 0 42.97 48.1"><defs><style>.cls-1,.cls-2{fill:#1e79b6;stroke:#282142;stroke-linecap:round;stroke-linejoin:round}.cls-2{fill:#fff}</style></defs><path class="cls-1" d="M34.28 24.49v12.78c0 2.77-1.95 5-4.36 5s-4.37-2.24-4.37-5V24.54"/><path class="cls-2" d="M30 25.51a12.5 12.5 0 01-10.86-6.29s-11.17-.4-15.24-.71a17.32 17.32 0 01-3.4-1.29V9.54a19.72 19.72 0 013.18-1.1C7.75 8.05 19 6.61 19 6.61A13 13 0 0130 .5a12.51 12.51 0 015 24 14.18 14.18 0 01-5 1.01z"/><path d="M27.44 5.56a8.14 8.14 0 0110.4 10.28m-1.67 2.86a8.1 8.1 0 01-3.36 2.23" stroke="#1e79b6" fill="#fff" stroke-linecap="round" stroke-linejoin="round"/><path class="cls-2" d="M35.81 13.46a5.91 5.91 0 11-5.91-5.91 5.92 5.92 0 015.91 5.91z"/><path class="cls-1" d="M32.84 13.46a2.94 2.94 0 11-2.94-2.94 2.94 2.94 0 012.94 2.94z"/><path class="cls-2" d="M28.41 25.53v11.19a.77.77 0 01-.77.77.78.78 0 01-.77-.77v-11.6m-4.35 4.57h3.08v2.13h-3.08zm0-3.87h3.08v2.13h-3.08z"/><path d="M2.89 43.41a5.92 5.92 0 015.92-5.92c2.68 0 4.51 2.19 5.68 4.46s4.33 5.65 8 5.65a8.54 8.54 0 007.92-5.35" fill="none" stroke-linecap="round" stroke-linejoin="round" stroke="#282142"/></svg>