<svg id="Слой_1" data-name="Слой 1" xmlns="http://www.w3.org/2000/svg" viewBox="0 0 26.09 47.66"><path d="M22.8 36.13a8.65 8.65 0 01-8.65 8.65h-2.21a8.65 8.65 0 01-8.65-8.65S5 25.44 9.77 25.44h6.47c4.76 0 6.56 10.69 6.56 10.69z" stroke-linecap="round" stroke-linejoin="round" stroke="#282142" fill="#1f7ab6"/><path d="M20.46 45.29a1.87 1.87 0 01-1.87 1.87H7.51a1.88 1.88 0 01-1.88-1.87 1.88 1.88 0 011.88-1.88h11.08a1.88 1.88 0 011.87 1.88zM17.6 25.74H8.42L.5 5.81S3.91.5 13.09.5a19.27 19.27 0 0112.5 4.9zm-7.34-.4L3.29 4.9m5.48 6.61L8.22 8.9m3.55 16.63L9.11 13.12M20.46 2.1l-2.99 13.02" stroke="#282142" stroke-linecap="round" stroke-linejoin="round" fill="#fff"/><path d="M8.37 41.65a6.86 6.86 0 01-3.08-5.73s1.35-8.5 5.15-8.5" fill="none" stroke="#fff" stroke-linecap="round" stroke-linejoin="round"/></svg>