<svg id="Слой_1" data-name="Слой 1" xmlns="http://www.w3.org/2000/svg" viewBox="0 0 18.43 47.96"><defs><style>.cls-1,.cls-2{fill:#fff;stroke:#282142;stroke-linecap:round;stroke-linejoin:round}.cls-2{fill:#1e79b6}</style></defs><path class="cls-1" d="M15 13.11a3.73 3.73 0 01-3.92 3.52H7.33a3.74 3.74 0 01-3.92-3.52v-.37a3.74 3.74 0 013.92-3.52h3.76A3.74 3.74 0 0115 12.74z"/><path class="cls-1" d="M13.45 12.93H5a3.73 3.73 0 00-3.9 3.52L1.19 18h16.09l.09-1.56a3.73 3.73 0 00-3.92-3.51z"/><path class="cls-2" d="M9.37 18H1.19l1.54 25.93a3.74 3.74 0 003.92 3.53h5.17a3.74 3.74 0 003.92-3.53L17.28 18z"/><path class="cls-1" d="M6.86 21.82h5.02v3.06H6.86zm0 6.26h5.02v3.06H6.86z"/><path class="cls-2" d="M16.86.5a1.08 1.08 0 00-1.07 1.1v3.82h-1.62V1.6a1.07 1.07 0 10-2.17 0v3.79h-1.61V1.6a1.07 1.07 0 10-2.13 0v3.79H6.74V1.6A1.17 1.17 0 005.52.5a1.17 1.17 0 00-1.23 1.1v3.79H2.94V1.6A1.16 1.16 0 001.72.5 1.17 1.17 0 00.5 1.6v6a1 1 0 000 .24 2.33 2.33 0 002.4 1.88h12.62a2.33 2.33 0 002.37-1.89 1 1 0 000-.25v-6A1.08 1.08 0 0016.86.5z"/><path d="M1.94 7.49h14.42M2.75 19L4 43.19a3.1 3.1 0 003.16 3h4.17a3.1 3.1 0 003.16-3" fill="none" stroke="#fff" stroke-linecap="round" stroke-linejoin="round"/></svg>