<svg id="Слой_1" data-name="Слой 1" xmlns="http://www.w3.org/2000/svg" viewBox="0 0 100 100"><defs><style>.cls-1{fill:#9bb9e2}</style></defs><path class="cls-1" d="M50 100a50 50 0 1150-50 50.06 50.06 0 01-50 50zm0-88.39A38.39 38.39 0 1088.39 50 38.43 38.43 0 0050 11.61z"/><path class="cls-1" d="M52.86 34.82V23.15h-7.54a4 4 0 00-.25 1.46 2.28 2.28 0 00-.18.69 11.28 11.28 0 01-6.83 9 6.33 6.33 0 01-3.28.52v9.42h5.53c.09 13.24.09 20.07.09 20.42v.78c.7 5.78 3.72 9.24 9.08 10.55a25.7 25.7 0 006.84.86 32.12 32.12 0 008.9-1.55V64.22c-1.72.52-3.28 1-4.67 1.38a6.5 6.5 0 01-6.75-1.46 3.68 3.68 0 01-.52-1 24.24 24.24 0 01-.41-4.14V44.24h12v-9.42zm0 0"/></svg>