<svg id="Слой_1" data-name="Слой 1" xmlns="http://www.w3.org/2000/svg" viewBox="0 0 100 100"><defs><style>.cls-1{fill:#9bb9e2}</style></defs><path class="cls-1" d="M50 100a50 50 0 1150-50 50.06 50.06 0 01-50 50zm0-88.39A38.39 38.39 0 1088.39 50 38.43 38.43 0 0050 11.61z"/><g id="g4780"><g id="g15"><path id="path17-6" class="cls-1" d="M69.38 60.12C68 59 66.44 57.94 64.94 56.89c-3-2.1-5.73-2.26-8 1.12-1.25 1.89-3 2-4.84 1.14a21.47 21.47 0 01-11.25-11c-1-2.27-1-4.31 1.37-5.92 1.26-.85 2.52-1.85 2.42-3.71-.13-2.43-6-10.52-8.34-11.38a4.25 4.25 0 00-2.9 0C28 29 25.74 33.49 27.9 38.8c6.45 15.82 17.79 26.84 33.41 33.56a15.08 15.08 0 002.38.68c3.55 0 7.72-3.39 8.92-6.79s-1.29-4.57-3.23-6.13z"/><path id="path19-1" class="cls-1" d="M51.87 28.18C63.29 29.94 68.56 35.37 70 46.87c.13 1.06-.26 2.66 1.25 2.69S72.47 48 72.48 47c.13-10.83-9.31-20.87-20.28-21.24-.82.12-2.53-.57-2.64 1.28-.07 1.25 1.37 1.05 2.31 1.19z"/><path id="path21-2" class="cls-1" d="M54.11 31.34c-1.1-.14-2.55-.65-2.81.87s1.35 1.44 2.39 1.67C60.74 35.46 63.2 38 64.36 45c.17 1-.17 2.6 1.56 2.34 1.29-.2.82-1.56.93-2.35.06-6.72-5.7-12.83-12.74-13.67z"/><path id="path23" class="cls-1" d="M54.76 36.83c-.74 0-1.46.09-1.73.88-.4 1.17.45 1.45 1.32 1.59a5.13 5.13 0 014.7 5.05c.08.78.57 1.42 1.33 1.33 1-.13 1.14-1.06 1.11-1.94 0-3.25-3.61-7-6.73-6.91z"/></g></g></svg>